<svg width="72" height="72" viewBox="0 0 72 72" fill="none" xmlns="http://www.w3.org/2000/svg">
<rect width="72" height="72" fill="#E8EDF9"/>
<path d="M13.4453 14.6875V16H6.77344V14.8721L10.0137 11.3379C10.3691 10.9368 10.6494 10.5905 10.8545 10.2988C11.0596 10.0072 11.2031 9.74512 11.2852 9.5127C11.3717 9.27572 11.415 9.04557 11.415 8.82227C11.415 8.50781 11.3558 8.2321 11.2373 7.99512C11.1234 7.75358 10.9548 7.56445 10.7314 7.42773C10.5081 7.28646 10.237 7.21582 9.91797 7.21582C9.54883 7.21582 9.23893 7.29557 8.98828 7.45508C8.73763 7.61458 8.5485 7.83561 8.4209 8.11816C8.29329 8.39616 8.22949 8.71517 8.22949 9.0752H6.58203C6.58203 8.49642 6.71419 7.96777 6.97852 7.48926C7.24284 7.00618 7.62565 6.62337 8.12695 6.34082C8.62826 6.05371 9.2321 5.91016 9.93848 5.91016C10.6038 5.91016 11.1689 6.02181 11.6338 6.24512C12.0986 6.46842 12.4518 6.78516 12.6934 7.19531C12.9395 7.60547 13.0625 8.09082 13.0625 8.65137C13.0625 8.96126 13.0124 9.26888 12.9121 9.57422C12.8118 9.87956 12.6683 10.1849 12.4814 10.4902C12.2992 10.791 12.0827 11.0941 11.832 11.3994C11.5814 11.7002 11.3057 12.0055 11.0049 12.3154L8.85156 14.6875H13.4453Z" fill="#B7C0D8"/>
</svg>
