<svg width="72" height="72" viewBox="0 0 72 72" fill="none" xmlns="http://www.w3.org/2000/svg">
<rect width="72" height="72" fill="#B7C0D8"/>
<path d="M8.70801 10.2783H9.69238C10.0752 10.2783 10.3919 10.2122 10.6426 10.0801C10.8978 9.94792 11.0869 9.76562 11.21 9.5332C11.333 9.30078 11.3945 9.03418 11.3945 8.7334C11.3945 8.41895 11.3376 8.15007 11.2236 7.92676C11.1143 7.69889 10.9456 7.52344 10.7178 7.40039C10.4945 7.27734 10.2096 7.21582 9.86328 7.21582C9.57161 7.21582 9.30729 7.27507 9.07031 7.39355C8.83789 7.50749 8.65332 7.67155 8.5166 7.88574C8.37988 8.09538 8.31152 8.34603 8.31152 8.6377H6.65723C6.65723 8.10905 6.79622 7.63965 7.07422 7.22949C7.35221 6.81934 7.73047 6.49805 8.20898 6.26562C8.69206 6.02865 9.23438 5.91016 9.83594 5.91016C10.4785 5.91016 11.0391 6.01725 11.5176 6.23145C12.0007 6.44108 12.3766 6.75553 12.6455 7.1748C12.9144 7.59408 13.0488 8.11361 13.0488 8.7334C13.0488 9.01595 12.9827 9.30306 12.8506 9.59473C12.7184 9.88639 12.5225 10.153 12.2627 10.3945C12.0029 10.6315 11.6794 10.8252 11.292 10.9756C10.9046 11.1214 10.4557 11.1943 9.94531 11.1943H8.70801V10.2783ZM8.70801 11.5635V10.6611H9.94531C10.5286 10.6611 11.0254 10.7295 11.4355 10.8662C11.8503 11.0029 12.1875 11.1921 12.4473 11.4336C12.707 11.6706 12.8962 11.9417 13.0146 12.2471C13.1377 12.5524 13.1992 12.876 13.1992 13.2178C13.1992 13.6826 13.1149 14.0973 12.9463 14.4619C12.7822 14.8219 12.5475 15.1273 12.2422 15.3779C11.9368 15.6286 11.5791 15.8177 11.1689 15.9453C10.7633 16.0729 10.3213 16.1367 9.84277 16.1367C9.41439 16.1367 9.00423 16.0775 8.6123 15.959C8.22038 15.8405 7.86947 15.665 7.55957 15.4326C7.24967 15.1956 7.00358 14.9017 6.82129 14.5508C6.64355 14.1953 6.55469 13.7852 6.55469 13.3203H8.20215C8.20215 13.6165 8.27051 13.8786 8.40723 14.1064C8.5485 14.3298 8.74447 14.5052 8.99512 14.6328C9.25033 14.7604 9.54199 14.8242 9.87012 14.8242C10.2165 14.8242 10.515 14.7627 10.7656 14.6396C11.0163 14.5166 11.2077 14.3343 11.3398 14.0928C11.4766 13.8512 11.5449 13.5596 11.5449 13.2178C11.5449 12.8304 11.4697 12.516 11.3193 12.2744C11.1689 12.0329 10.9548 11.8551 10.6768 11.7412C10.3988 11.6227 10.0706 11.5635 9.69238 11.5635H8.70801Z" fill="#E8EDF9"/>
</svg>
