<svg width="72" height="72" viewBox="0 0 72 72" fill="none" xmlns="http://www.w3.org/2000/svg">
<rect width="72" height="72" fill="#B7C0D8"/>
<path d="M8.50293 11.3721L7.19043 11.0508L7.73047 6.04688H13.0967V7.44141H9.09766L8.82422 9.88184C8.97917 9.79069 9.19336 9.70182 9.4668 9.61523C9.74023 9.52409 10.0524 9.47852 10.4033 9.47852C10.8727 9.47852 11.292 9.55599 11.6611 9.71094C12.0348 9.86133 12.3516 10.0824 12.6113 10.374C12.8711 10.6611 13.0693 11.012 13.2061 11.4268C13.3428 11.8369 13.4111 12.2995 13.4111 12.8145C13.4111 13.2747 13.3428 13.7054 13.2061 14.1064C13.0739 14.5075 12.8734 14.8607 12.6045 15.166C12.3356 15.4714 11.9961 15.7106 11.5859 15.8838C11.1803 16.0524 10.6995 16.1367 10.1436 16.1367C9.72884 16.1367 9.33008 16.0775 8.94727 15.959C8.56901 15.8359 8.22949 15.6559 7.92871 15.4189C7.62793 15.1774 7.38639 14.8812 7.2041 14.5303C7.02181 14.1748 6.91699 13.7669 6.88965 13.3066H8.50293C8.54395 13.6302 8.63281 13.9059 8.76953 14.1338C8.91081 14.3571 9.09766 14.528 9.33008 14.6465C9.5625 14.765 9.83138 14.8242 10.1367 14.8242C10.4147 14.8242 10.654 14.7764 10.8545 14.6807C11.055 14.5804 11.2214 14.4391 11.3535 14.2568C11.4902 14.07 11.5905 13.8512 11.6543 13.6006C11.7227 13.3499 11.7568 13.0719 11.7568 12.7666C11.7568 12.4749 11.7181 12.2083 11.6406 11.9668C11.5677 11.7253 11.4561 11.5156 11.3057 11.3379C11.1598 11.1602 10.9753 11.0234 10.752 10.9277C10.5286 10.8275 10.2712 10.7773 9.97949 10.7773C9.58757 10.7773 9.28678 10.8343 9.07715 10.9482C8.87207 11.0622 8.68066 11.2035 8.50293 11.3721Z" fill="#E8EDF9"/>
</svg>
