<svg width="72" height="72" viewBox="0 0 72 72" fill="none" xmlns="http://www.w3.org/2000/svg">
<rect width="72" height="72" fill="#E8EDF9"/>
<path d="M11.75 5.98535H11.9551V7.33203H11.8389C11.251 7.33203 10.7428 7.42318 10.3145 7.60547C9.89062 7.78776 9.54199 8.03841 9.26855 8.35742C8.99512 8.67643 8.79004 9.05013 8.65332 9.47852C8.52116 9.90234 8.45508 10.3535 8.45508 10.832V12.3975C8.45508 12.7939 8.49837 13.1449 8.58496 13.4502C8.67155 13.751 8.79232 14.0039 8.94727 14.209C9.10677 14.4095 9.28906 14.5622 9.49414 14.667C9.69922 14.7718 9.92025 14.8242 10.1572 14.8242C10.4033 14.8242 10.6266 14.7741 10.8271 14.6738C11.0277 14.569 11.1986 14.4255 11.3398 14.2432C11.4811 14.0609 11.5882 13.8444 11.6611 13.5938C11.734 13.3431 11.7705 13.0697 11.7705 12.7734C11.7705 12.4909 11.734 12.2266 11.6611 11.9805C11.5928 11.7298 11.4902 11.5111 11.3535 11.3242C11.2168 11.1328 11.0459 10.9847 10.8408 10.8799C10.6403 10.7705 10.4079 10.7158 10.1436 10.7158C9.81543 10.7158 9.51693 10.7933 9.24805 10.9482C8.98372 11.1032 8.76953 11.306 8.60547 11.5566C8.44596 11.8027 8.35938 12.0648 8.3457 12.3428L7.7168 12.1377C7.75326 11.7139 7.84668 11.3333 7.99707 10.9961C8.15202 10.6589 8.35482 10.3717 8.60547 10.1348C8.85612 9.89779 9.14551 9.71777 9.47363 9.59473C9.80632 9.46712 10.1709 9.40332 10.5674 9.40332C11.0505 9.40332 11.4697 9.49447 11.8252 9.67676C12.1807 9.85905 12.4746 10.1074 12.707 10.4219C12.944 10.7318 13.1195 11.0872 13.2334 11.4883C13.3519 11.8848 13.4111 12.2995 13.4111 12.7324C13.4111 13.2109 13.3382 13.6576 13.1924 14.0723C13.0465 14.4824 12.8324 14.8424 12.5498 15.1523C12.2718 15.4622 11.9323 15.7038 11.5312 15.877C11.1348 16.0501 10.6836 16.1367 10.1777 16.1367C9.64453 16.1367 9.16829 16.0342 8.74902 15.8291C8.33431 15.624 7.98112 15.3415 7.68945 14.9814C7.40234 14.6214 7.18359 14.2067 7.0332 13.7373C6.88281 13.2679 6.80762 12.7712 6.80762 12.2471V11.5635C6.80762 10.807 6.90332 10.0938 7.09473 9.42383C7.28613 8.74935 7.58008 8.15462 7.97656 7.63965C8.3776 7.12467 8.8903 6.72135 9.51465 6.42969C10.139 6.13346 10.8841 5.98535 11.75 5.98535Z" fill="#B7C0D8"/>
</svg>
