<svg width="72" height="72" viewBox="0 0 72 72" fill="none" xmlns="http://www.w3.org/2000/svg">
<rect width="72" height="72" fill="#E8EDF9"/>
<path d="M13.2812 13.2861C13.2812 13.9059 13.1377 14.4277 12.8506 14.8516C12.5635 15.2754 12.1715 15.5967 11.6748 15.8154C11.1826 16.0296 10.6266 16.1367 10.0068 16.1367C9.38704 16.1367 8.82878 16.0296 8.33203 15.8154C7.83529 15.5967 7.44336 15.2754 7.15625 14.8516C6.86914 14.4277 6.72559 13.9059 6.72559 13.2861C6.72559 12.876 6.80534 12.5046 6.96484 12.1719C7.12435 11.8346 7.34993 11.5452 7.6416 11.3037C7.93783 11.0576 8.28418 10.8685 8.68066 10.7363C9.08171 10.6042 9.51921 10.5381 9.99316 10.5381C10.6221 10.5381 11.1849 10.6543 11.6816 10.8867C12.1784 11.1191 12.568 11.4404 12.8506 11.8506C13.1377 12.2607 13.2812 12.7393 13.2812 13.2861ZM11.627 13.2041C11.627 12.8714 11.5586 12.5798 11.4219 12.3291C11.2852 12.0785 11.0938 11.8848 10.8477 11.748C10.6016 11.6113 10.3167 11.543 9.99316 11.543C9.66504 11.543 9.38021 11.6113 9.13867 11.748C8.89714 11.8848 8.70801 12.0785 8.57129 12.3291C8.43913 12.5798 8.37305 12.8714 8.37305 13.2041C8.37305 13.5413 8.43913 13.833 8.57129 14.0791C8.70345 14.3206 8.89258 14.5052 9.13867 14.6328C9.38477 14.7604 9.67415 14.8242 10.0068 14.8242C10.3395 14.8242 10.6266 14.7604 10.8682 14.6328C11.1097 14.5052 11.2965 14.3206 11.4287 14.0791C11.5609 13.833 11.627 13.5413 11.627 13.2041ZM13.0557 8.66504C13.0557 9.16178 12.9235 9.60384 12.6592 9.99121C12.3994 10.3786 12.0394 10.6839 11.5791 10.9072C11.1188 11.126 10.5947 11.2354 10.0068 11.2354C9.41439 11.2354 8.88574 11.126 8.4209 10.9072C7.96061 10.6839 7.59831 10.3786 7.33398 9.99121C7.07422 9.60384 6.94434 9.16178 6.94434 8.66504C6.94434 8.07259 7.07422 7.57357 7.33398 7.16797C7.59831 6.75781 7.96061 6.44564 8.4209 6.23145C8.88118 6.01725 9.40755 5.91016 10 5.91016C10.5924 5.91016 11.1188 6.01725 11.5791 6.23145C12.0394 6.44564 12.3994 6.75781 12.6592 7.16797C12.9235 7.57357 13.0557 8.07259 13.0557 8.66504ZM11.4082 8.71973C11.4082 8.4235 11.349 8.16374 11.2305 7.94043C11.1165 7.71257 10.9548 7.53483 10.7451 7.40723C10.5355 7.27962 10.2871 7.21582 10 7.21582C9.71289 7.21582 9.46452 7.27734 9.25488 7.40039C9.04525 7.52344 8.88346 7.69661 8.76953 7.91992C8.6556 8.14323 8.59863 8.40983 8.59863 8.71973C8.59863 9.02507 8.6556 9.29167 8.76953 9.51953C8.88346 9.74284 9.04525 9.91829 9.25488 10.0459C9.46908 10.1735 9.71973 10.2373 10.0068 10.2373C10.2939 10.2373 10.5423 10.1735 10.752 10.0459C10.9616 9.91829 11.1234 9.74284 11.2373 9.51953C11.3512 9.29167 11.4082 9.02507 11.4082 8.71973Z" fill="#B7C0D8"/>
</svg>
