<svg width="72" height="72" viewBox="0 0 72 72" fill="none" xmlns="http://www.w3.org/2000/svg">
<rect width="72" height="72" fill="#E8EDF9"/>
<path d="M59.8213 61.502H57.2852L57.2715 60.251H59.4863C59.86 60.251 60.1768 60.1963 60.4365 60.0869C60.7008 59.973 60.9014 59.8112 61.0381 59.6016C61.1748 59.3874 61.2432 59.1299 61.2432 58.8291C61.2432 58.4964 61.1794 58.2253 61.0518 58.0156C60.9242 57.806 60.7282 57.6533 60.4639 57.5576C60.2041 57.4619 59.8714 57.4141 59.4658 57.4141H57.8047V66H56.0889V56.0469H59.4658C60.0127 56.0469 60.5003 56.0993 60.9287 56.2041C61.3617 56.3089 61.7285 56.473 62.0293 56.6963C62.3346 56.915 62.5648 57.193 62.7197 57.5303C62.8792 57.8675 62.959 58.2686 62.959 58.7334C62.959 59.1436 62.861 59.5195 62.665 59.8613C62.4691 60.1986 62.1797 60.4743 61.7969 60.6885C61.4141 60.9027 60.9378 61.0303 60.3682 61.0713L59.8213 61.502ZM59.7461 66H56.7451L57.5176 64.6396H59.7461C60.1335 64.6396 60.457 64.5758 60.7168 64.4482C60.9766 64.3161 61.1702 64.1361 61.2979 63.9082C61.43 63.6758 61.4961 63.4046 61.4961 63.0947C61.4961 62.7712 61.4391 62.4909 61.3252 62.2539C61.2113 62.0124 61.0312 61.8278 60.7852 61.7002C60.5391 61.568 60.2178 61.502 59.8213 61.502H57.8936L57.9072 60.251H60.416L60.8057 60.7227C61.3525 60.7409 61.8014 60.8617 62.1523 61.085C62.5078 61.3083 62.7721 61.5977 62.9453 61.9531C63.1185 62.3086 63.2051 62.6914 63.2051 63.1016C63.2051 63.735 63.0661 64.266 62.7881 64.6943C62.5146 65.1227 62.1204 65.4486 61.6055 65.6719C61.0905 65.8906 60.4707 66 59.7461 66Z" fill="#B7C0D8"/>
</svg>
