<svg width="72" height="72" viewBox="0 0 72 72" fill="none" xmlns="http://www.w3.org/2000/svg">
<rect width="72" height="72" fill="#B7C0D8"/>
<path d="M61.3174 62.7598H63.0264C62.9717 63.4115 62.7894 63.9925 62.4795 64.5029C62.1696 65.0088 61.7344 65.4076 61.1738 65.6992C60.6133 65.9909 59.932 66.1367 59.1299 66.1367C58.5146 66.1367 57.9609 66.0273 57.4688 65.8086C56.9766 65.5853 56.555 65.2708 56.2041 64.8652C55.8532 64.4551 55.5843 63.9606 55.3975 63.3818C55.2152 62.8031 55.124 62.1559 55.124 61.4404V60.6133C55.124 59.8978 55.2174 59.2507 55.4043 58.6719C55.5957 58.0931 55.8691 57.5986 56.2246 57.1885C56.5801 56.7738 57.0062 56.457 57.5029 56.2383C58.0042 56.0195 58.5671 55.9102 59.1914 55.9102C59.9844 55.9102 60.6543 56.056 61.2012 56.3477C61.748 56.6393 62.1719 57.0426 62.4727 57.5576C62.778 58.0726 62.9648 58.6628 63.0332 59.3281H61.3242C61.2786 58.8997 61.1784 58.5329 61.0234 58.2275C60.873 57.9222 60.6497 57.6898 60.3535 57.5303C60.0573 57.3662 59.6699 57.2842 59.1914 57.2842C58.7995 57.2842 58.4577 57.3571 58.166 57.5029C57.8743 57.6488 57.6305 57.863 57.4346 58.1455C57.2386 58.4281 57.0905 58.7767 56.9902 59.1914C56.8945 59.6016 56.8467 60.071 56.8467 60.5996V61.4404C56.8467 61.9417 56.89 62.3975 56.9766 62.8076C57.0677 63.2132 57.2044 63.5618 57.3867 63.8535C57.5736 64.1452 57.8105 64.3708 58.0977 64.5303C58.3848 64.6898 58.7288 64.7695 59.1299 64.7695C59.6175 64.7695 60.0117 64.6921 60.3125 64.5371C60.6178 64.3822 60.848 64.1566 61.0029 63.8604C61.1624 63.5596 61.2673 63.1927 61.3174 62.7598Z" fill="#E8EDF9"/>
</svg>
