<svg width="72" height="72" viewBox="0 0 72 72" fill="none" xmlns="http://www.w3.org/2000/svg">
<rect width="72" height="72" fill="#E8EDF9"/>
<path d="M58.8301 66H56.7041L56.7178 64.6396H58.8301C59.4453 64.6396 59.9603 64.5052 60.375 64.2363C60.7943 63.9674 61.1087 63.5824 61.3184 63.0811C61.5326 62.5798 61.6396 61.9827 61.6396 61.29V60.75C61.6396 60.2122 61.5781 59.736 61.4551 59.3213C61.3366 58.9066 61.1589 58.5579 60.9219 58.2754C60.6895 57.9928 60.4023 57.7786 60.0605 57.6328C59.7233 57.487 59.3337 57.4141 58.8916 57.4141H56.6631V56.0469H58.8916C59.5524 56.0469 60.1562 56.1585 60.7031 56.3818C61.25 56.6006 61.7217 56.9173 62.1182 57.332C62.5192 57.7467 62.8268 58.2435 63.041 58.8223C63.2552 59.401 63.3623 60.0482 63.3623 60.7637V61.29C63.3623 62.0055 63.2552 62.6527 63.041 63.2314C62.8268 63.8102 62.5192 64.307 62.1182 64.7217C61.7171 65.1318 61.2386 65.4486 60.6826 65.6719C60.1312 65.8906 59.5137 66 58.8301 66ZM57.6543 56.0469V66H55.9385V56.0469H57.6543Z" fill="#B7C0D8"/>
</svg>
