<svg width="72" height="72" viewBox="0 0 72 72" fill="none" xmlns="http://www.w3.org/2000/svg">
<rect width="72" height="72" fill="#B7C0D8"/>
<path d="M62.8828 60.9141V64.7148C62.7415 64.9017 62.5205 65.1068 62.2197 65.3301C61.9235 65.5488 61.5293 65.738 61.0371 65.8975C60.5449 66.057 59.932 66.1367 59.1982 66.1367C58.5739 66.1367 58.002 66.0319 57.4824 65.8223C56.9629 65.6081 56.514 65.2959 56.1357 64.8857C55.762 64.4756 55.4727 63.9766 55.2676 63.3887C55.0625 62.7962 54.96 62.1217 54.96 61.3652V60.6748C54.96 59.9229 55.0534 59.2529 55.2402 58.665C55.4316 58.0726 55.7051 57.5713 56.0605 57.1611C56.416 56.751 56.8444 56.4411 57.3457 56.2314C57.8516 56.0173 58.4235 55.9102 59.0615 55.9102C59.8773 55.9102 60.5518 56.0469 61.085 56.3203C61.6227 56.5892 62.0374 56.9629 62.3291 57.4414C62.6208 57.9199 62.8053 58.4668 62.8828 59.082H61.2012C61.1465 58.7357 61.0394 58.4258 60.8799 58.1523C60.7249 57.8789 60.5016 57.6647 60.21 57.5098C59.9229 57.3503 59.5492 57.2705 59.0889 57.2705C58.6924 57.2705 58.3438 57.3457 58.043 57.4961C57.7422 57.6465 57.4915 57.8675 57.291 58.1592C57.0951 58.4508 56.9469 58.8063 56.8467 59.2256C56.7464 59.6449 56.6963 60.1234 56.6963 60.6611V61.3652C56.6963 61.9121 56.7533 62.3975 56.8672 62.8213C56.9857 63.2451 57.1543 63.6029 57.373 63.8945C57.5964 64.1862 57.8675 64.4072 58.1865 64.5576C58.5055 64.7035 58.8656 64.7764 59.2666 64.7764C59.6585 64.7764 59.9798 64.7445 60.2305 64.6807C60.4811 64.6123 60.6794 64.5326 60.8252 64.4414C60.9756 64.3457 61.0918 64.2546 61.1738 64.168V62.1924H59.1025V60.9141H62.8828Z" fill="#E8EDF9"/>
</svg>
